<?xml version="1.0" encoding="utf-8"?>
<!-- Generator: Adobe Illustrator 27.0.0, SVG Export Plug-In . SVG Version: 6.00 Build 0)  -->
<svg version="1.1" id="Layer_1" xmlns="http://www.w3.org/2000/svg" xmlns:xlink="http://www.w3.org/1999/xlink" x="0px" y="0px"
	 viewBox="0 0 16 16" style="enable-background:new 0 0 16 16;" xml:space="preserve">
<style type="text/css">
	.st0{fill:#96AF7D;}
</style>
<g id="Page-2">
	<g id="Group" transform="translate(-12.000000, -12.000000)">
		<g id="ic-arrow-downward-24px" transform="translate(8.000000, 8.000000)">
			<path id="Path" class="st0" d="M19.3,11.3L19.3,11.3c-0.4-0.4-1-0.4-1.4,0L13,16.2V5c0-0.6-0.4-1-1-1h0c-0.6,0-1,0.4-1,1v11.2
				l-4.9-4.9c-0.4-0.4-1-0.4-1.4,0l0,0c-0.4,0.4-0.4,1,0,1.4l6.6,6.6c0.4,0.4,1,0.4,1.4,0l6.6-6.6C19.7,12.3,19.7,11.7,19.3,11.3z"
				/>
		</g>
	</g>
</g>
</svg>
